# Blender v2.79 (sub 0) OBJ File: 'Append-Rocks.blend'
# www.blender.org
mtllib rock.mtl
o Icosphere.001_Icosphere.000
v 4.619686 -0.130199 1.993028
v 4.053523 -0.028010 1.133369
v 5.297051 -0.018640 0.995428
v 5.146692 -0.046882 2.369655
v 4.469819 -0.073498 3.016813
v 3.819529 0.053877 2.438407
v 4.518675 0.729892 0.900403
v 5.510445 0.750642 1.373589
v 5.162292 0.850867 2.793579
v 4.230104 0.653668 2.901837
v 4.105702 0.854457 1.480248
v 4.902273 1.263019 1.751814
v 4.984426 -0.142359 1.443847
v 4.270875 -0.039198 1.457022
v 4.447952 -0.074932 0.994721
v 3.846860 -0.014351 1.742133
v 4.178480 -0.099723 2.100196
v 4.989075 -0.110835 2.227276
v 5.579405 0.105544 1.412775
v 4.565324 -0.167182 2.645107
v 5.071903 0.023400 2.816463
v 4.156012 0.024436 2.720886
v 3.983621 0.423699 1.148572
v 3.795045 0.496448 1.792636
v 4.713693 0.187689 0.725550
v 4.162122 0.345811 0.836418
v 5.674732 0.574884 1.686494
v 5.520758 0.374377 1.130236
v 4.901961 0.348854 3.151883
v 5.368546 0.235278 2.561341
v 3.890554 0.265260 2.827353
v 4.344945 0.227132 3.137796
v 4.234743 0.816401 1.202249
v 5.178449 0.873128 0.971011
v 5.499364 0.912484 2.084756
v 4.600347 0.852488 3.230051
v 4.064459 0.772653 2.288485
v 4.705352 1.187825 1.309660
v 4.311818 1.110800 1.653678
v 5.182449 1.135369 1.599135
v 4.907240 1.292089 2.594669
v 4.254668 1.119647 2.641658
v 4.966616 0.066597 1.474863
v 4.622887 0.078056 1.992409
v 4.294169 0.163815 1.487279
v 4.089337 0.174359 1.182271
v 4.461045 0.130139 1.051610
v 5.261231 0.183189 1.052275
v 3.894579 0.187231 1.755966
v 4.207096 0.106776 2.093404
v 3.868822 0.251528 2.412132
v 4.970996 0.096305 2.213163
v 5.527320 0.300219 1.445582
v 5.119534 0.156574 2.347340
v 4.571656 0.043204 2.606925
v 5.049053 0.222807 2.768409
v 4.481652 0.131491 2.957218
v 4.185922 0.223783 2.678338
v 4.023462 0.600047 1.196597
v 3.845749 0.668606 1.803560
v 4.138511 1.005991 1.509168
v 4.711478 0.377632 0.797945
v 4.191680 0.526645 0.902426
v 4.527693 0.888602 0.962725
v 5.617156 0.742523 1.703533
v 5.472052 0.553566 1.179318
v 5.462333 0.908156 1.408653
v 4.888901 0.529513 3.084508
v 5.328608 0.422480 2.527984
v 5.134235 1.002608 2.746844
v 3.935756 0.450734 2.778672
v 4.363973 0.414803 3.071232
v 4.255747 0.816769 2.848866
v 4.260118 0.970127 1.247183
v 5.149461 1.023587 1.029266
v 5.451890 1.060675 2.078852
v 4.604661 1.004135 3.158173
v 4.099644 0.928899 2.270845
v 4.703618 1.320155 1.348406
v 4.332753 1.247567 1.672607
v 4.889194 1.391017 1.765090
v 5.153232 1.270721 1.621206
v 4.893876 1.418413 2.559392
v 4.278895 1.255905 2.603674
vn -0.1440 -0.9868 -0.0738
vn -0.0563 -0.9984 0.0033
vn 0.0270 -0.9988 0.0400
vn 0.0836 -0.9953 -0.0495
vn -0.0841 -0.9944 -0.0634
vn -0.9392 -0.1347 -0.3158
vn 0.0495 -0.7389 -0.6720
vn 0.8671 -0.3704 0.3331
vn 0.3394 -0.5833 0.7379
vn -0.4723 -0.7354 0.4859
vn -0.8744 -0.1195 -0.4702
vn 0.4364 0.0595 -0.8978
vn 0.7766 -0.6293 0.0275
vn 0.0536 -0.3535 0.9339
vn -0.9863 0.1161 0.1170
vn -0.4139 0.6946 -0.5884
vn 0.6305 0.7148 -0.3025
vn 0.7107 0.5862 0.3889
vn -0.7196 0.3670 0.5894
vn -0.7865 0.6172 0.0223
vn -0.2460 0.9690 -0.0229
vn -0.8515 0.5216 -0.0539
vn -0.9321 0.2127 0.2930
vn -0.2575 0.9658 -0.0318
vn -0.1884 0.8479 0.4956
vn 0.5010 0.5794 0.6429
vn 0.3990 0.9163 -0.0340
vn 0.5527 0.8331 0.0217
vn 0.7089 0.6900 -0.1460
vn 0.2694 0.9224 -0.2768
vn 0.3187 0.8740 -0.3669
vn -0.0696 0.6804 -0.7295
vn -0.2402 0.9690 -0.0578
vn -0.5061 0.7594 -0.4089
vn -0.5853 0.7212 -0.3704
vn -0.7419 0.6699 0.0299
vn -0.8503 0.4914 0.1883
vn -0.7436 0.5896 0.3152
vn -0.7061 0.1876 0.6828
vn 0.0075 -0.1490 0.9888
vn 0.5962 0.2381 0.7667
vn 0.8903 0.1342 0.4351
vn 0.9331 0.0682 0.3531
vn 0.8195 0.5614 -0.1150
vn 0.7704 0.3610 -0.5255
vn 0.4446 0.0192 -0.8955
vn 0.0325 0.3173 -0.9478
vn -0.5061 0.5767 -0.6413
vn -0.6859 0.5096 -0.5194
vn -0.7394 0.5296 -0.4157
vn -0.5204 0.3018 0.7988
vn -0.4327 -0.7180 0.5452
vn -0.6718 -0.4993 0.5472
vn 0.7872 0.0314 0.6159
vn 0.7308 -0.2662 0.6286
vn 0.6865 -0.6918 0.2237
vn 0.9083 0.2445 -0.3395
vn 0.9671 -0.0510 -0.2493
vn 0.8276 -0.3107 -0.4675
vn -0.1158 0.2669 -0.9567
vn -0.3078 -0.5111 -0.8025
vn -0.3373 -0.5235 -0.7824
vn -0.8342 0.4649 -0.2967
vn -0.9594 -0.0703 -0.2730
vn -0.9948 -0.0980 -0.0294
vn -0.2366 -0.9544 0.1823
vn -0.3926 -0.9045 0.1667
vn -0.4015 -0.9072 0.1255
vn 0.2470 -0.9227 0.2960
vn 0.2952 -0.9397 0.1726
vn 0.2193 -0.9575 0.1873
vn 0.3635 -0.9315 0.0160
vn 0.3859 -0.9219 0.0348
vn 0.3852 -0.9227 0.0140
vn -0.3280 -0.9413 0.0794
vn -0.1329 -0.9848 -0.1118
vn -0.0943 -0.9898 -0.1067
vn 0.0647 -0.9726 -0.2233
vn -0.1427 -0.9895 0.0218
vn -0.1054 -0.9938 0.0364
usemtl Rock1
s off
f 1//1 14//1 13//1
f 2//2 14//2 16//2
f 1//3 13//3 18//3
f 1//4 18//4 20//4
f 1//5 20//5 17//5
f 2//6 16//6 23//6
f 3//7 15//7 25//7
f 4//8 19//8 27//8
f 5//9 21//9 29//9
f 6//10 22//10 31//10
f 2//11 23//11 26//11
f 3//12 25//12 28//12
f 4//13 27//13 30//13
f 5//14 29//14 32//14
f 6//15 31//15 24//15
f 7//16 33//16 38//16
f 8//17 34//17 40//17
f 9//18 35//18 41//18
f 10//19 36//19 42//19
f 11//20 37//20 39//20
f 39//21 42//21 12//21
f 39//22 37//22 42//22
f 37//23 10//23 42//23
f 42//24 41//24 12//24
f 42//25 36//25 41//25
f 36//26 9//26 41//26
f 41//27 40//27 12//27
f 41//28 35//28 40//28
f 35//29 8//29 40//29
f 40//30 38//30 12//30
f 40//31 34//31 38//31
f 34//32 7//32 38//32
f 38//33 39//33 12//33
f 38//34 33//34 39//34
f 33//35 11//35 39//35
f 24//36 37//36 11//36
f 24//37 31//37 37//37
f 31//38 10//38 37//38
f 32//39 36//39 10//39
f 32//40 29//40 36//40
f 29//41 9//41 36//41
f 30//42 35//42 9//42
f 30//43 27//43 35//43
f 27//44 8//44 35//44
f 28//45 34//45 8//45
f 28//46 25//46 34//46
f 25//47 7//47 34//47
f 26//48 33//48 7//48
f 26//49 23//49 33//49
f 23//50 11//50 33//50
f 31//51 32//51 10//51
f 31//52 22//52 32//52
f 22//53 5//53 32//53
f 29//54 30//54 9//54
f 29//55 21//55 30//55
f 21//56 4//56 30//56
f 27//57 28//57 8//57
f 27//58 19//58 28//58
f 19//59 3//59 28//59
f 25//60 26//60 7//60
f 25//61 15//61 26//61
f 15//62 2//62 26//62
f 23//63 24//63 11//63
f 23//64 16//64 24//64
f 16//65 6//65 24//65
f 17//66 22//66 6//66
f 17//67 20//67 22//67
f 20//68 5//68 22//68
f 20//69 21//69 5//69
f 20//70 18//70 21//70
f 18//71 4//71 21//71
f 18//72 19//72 4//72
f 18//73 13//73 19//73
f 13//74 3//74 19//74
f 16//75 17//75 6//75
f 16//76 14//76 17//76
f 14//77 1//77 17//77
f 13//78 15//78 3//78
f 13//79 14//79 15//79
f 14//80 2//80 15//80
usemtl Snow
f 44//1 45//1 43//1
f 46//2 45//2 49//2
f 44//3 43//3 52//3
f 44//4 52//4 55//4
f 44//5 55//5 50//5
f 46//6 49//6 59//6
f 48//7 47//7 62//7
f 54//8 53//8 65//8
f 57//9 56//9 68//9
f 51//10 58//10 71//10
f 46//11 59//11 63//11
f 48//12 62//12 66//12
f 54//13 65//13 69//13
f 57//14 68//14 72//14
f 51//15 71//15 60//15
f 64//16 74//16 79//16
f 67//17 75//17 82//17
f 70//18 76//18 83//18
f 73//19 77//19 84//19
f 61//20 78//20 80//20
f 80//21 84//21 81//21
f 80//22 78//22 84//22
f 78//23 73//23 84//23
f 84//24 83//24 81//24
f 84//25 77//25 83//25
f 77//26 70//26 83//26
f 83//27 82//27 81//27
f 83//28 76//28 82//28
f 76//29 67//29 82//29
f 82//30 79//30 81//30
f 82//31 75//31 79//31
f 75//32 64//32 79//32
f 79//33 80//33 81//33
f 79//34 74//34 80//34
f 74//35 61//35 80//35
f 60//36 78//36 61//36
f 60//37 71//37 78//37
f 71//38 73//38 78//38
f 72//39 77//39 73//39
f 72//40 68//40 77//40
f 68//41 70//41 77//41
f 69//42 76//42 70//42
f 69//43 65//43 76//43
f 65//44 67//44 76//44
f 66//45 75//45 67//45
f 66//46 62//46 75//46
f 62//47 64//47 75//47
f 63//48 74//48 64//48
f 63//49 59//49 74//49
f 59//50 61//50 74//50
f 71//51 72//51 73//51
f 71//52 58//52 72//52
f 58//53 57//53 72//53
f 68//54 69//54 70//54
f 68//55 56//55 69//55
f 56//56 54//56 69//56
f 65//57 66//57 67//57
f 65//58 53//58 66//58
f 53//59 48//59 66//59
f 62//60 63//60 64//60
f 62//61 47//61 63//61
f 47//62 46//62 63//62
f 59//63 60//63 61//63
f 59//64 49//64 60//64
f 49//65 51//65 60//65
f 50//66 58//66 51//66
f 50//67 55//67 58//67
f 55//68 57//68 58//68
f 55//69 56//69 57//69
f 55//70 52//70 56//70
f 52//71 54//71 56//71
f 52//72 53//72 54//72
f 52//73 43//73 53//73
f 43//74 48//74 53//74
f 49//75 50//75 51//75
f 49//76 45//76 50//76
f 45//77 44//77 50//77
f 43//78 47//78 48//78
f 43//79 45//79 47//79
f 45//80 46//80 47//80
